<?xml version="1.0" encoding="UTF-8" standalone="no"?>
<!DOCTYPE svg PUBLIC "-//W3C//DTD SVG 1.1//EN" "http://www.w3.org/Graphics/SVG/1.1/DTD/svg11.dtd">
<svg width="100%" height="100%" viewBox="0 0 347 279" version="1.1" xmlns="http://www.w3.org/2000/svg" xmlns:xlink="http://www.w3.org/1999/xlink" xml:space="preserve" xmlns:serif="http://www.serif.com/" style="fill-rule:evenodd;clip-rule:evenodd;stroke-linejoin:round;stroke-miterlimit:2;">
    <g transform="matrix(3.125,0,0,3.125,0,0)">
        <g transform="matrix(116.235,0,0,116.235,-2.952,83.992)">
            <path d="M0.539,-0.365L0.714,-0.365L0.714,-0.075C0.674,-0.046 0.628,-0.024 0.576,-0.009C0.524,0.006 0.472,0.014 0.42,0.014C0.347,0.014 0.281,-0.002 0.222,-0.033C0.163,-0.064 0.117,-0.107 0.084,-0.162C0.051,-0.217 0.034,-0.28 0.034,-0.35C0.034,-0.42 0.051,-0.483 0.084,-0.538C0.117,-0.593 0.164,-0.636 0.223,-0.668C0.282,-0.699 0.349,-0.714 0.424,-0.714C0.489,-0.714 0.548,-0.703 0.6,-0.681C0.652,-0.659 0.695,-0.627 0.73,-0.586L0.604,-0.472C0.557,-0.524 0.5,-0.55 0.434,-0.55C0.374,-0.55 0.326,-0.532 0.289,-0.496C0.252,-0.459 0.234,-0.411 0.234,-0.35C0.234,-0.311 0.242,-0.277 0.259,-0.247C0.276,-0.216 0.299,-0.193 0.329,-0.175C0.359,-0.159 0.393,-0.15 0.432,-0.15C0.47,-0.15 0.506,-0.158 0.539,-0.173L0.539,-0.365Z" style="fill:#038093;fill-rule:nonzero;"/>
        </g>
        <g transform="matrix(87.1765,0,0,87.1765,87.806,68.3293)">
            <path d="M0.141,0.009C0.109,0.009 0.082,-0.002 0.06,-0.023C0.038,-0.044 0.027,-0.071 0.027,-0.104C0.027,-0.137 0.038,-0.164 0.059,-0.185C0.081,-0.206 0.108,-0.216 0.141,-0.216C0.174,-0.216 0.202,-0.206 0.223,-0.185C0.244,-0.164 0.255,-0.137 0.255,-0.104C0.255,-0.071 0.244,-0.044 0.223,-0.023C0.201,-0.002 0.174,0.009 0.141,0.009Z" style="fill:#3815db;fill-rule:nonzero;"/>
        </g>
    </g>
</svg>
