<?xml version="1.0" standalone="no"?>
<!DOCTYPE svg PUBLIC "-//W3C//DTD SVG 20010904//EN"
 "http://www.w3.org/TR/2001/REC-SVG-20010904/DTD/svg10.dtd">
<svg version="1.0" xmlns="http://www.w3.org/2000/svg"
 width="234.000000pt" height="234.000000pt" viewBox="0 0 234.000000 234.000000"
 preserveAspectRatio="xMidYMid meet">
<metadata>
Created by potrace 1.14, written by Peter Selinger 2001-2017
</metadata>
<g transform="translate(0.000000,234.000000) scale(0.100000,-0.100000)"
fill="#000000" stroke="none">
<path d="M30 1162 l0 -870 118 -7 c171 -10 249 13 308 90 53 70 53 75 55 778
1 710 1 708 -55 782 -15 19 -48 47 -74 62 -45 27 -54 28 -199 31 l-153 4 0
-870z m294 676 c14 -20 16 -102 16 -690 l0 -667 -22 -15 c-13 -9 -43 -16 -70
-16 l-48 0 0 705 0 705 54 0 c45 0 58 -4 70 -22z"/>
<path d="M1037 2016 c-60 -16 -115 -60 -147 -117 l-25 -44 -5 -595 c-3 -327
-4 -679 -2 -782 l3 -188 78 0 79 0 4 764 c4 729 5 766 22 785 29 32 90 29 113
-5 16 -25 18 -87 21 -785 l4 -759 79 0 79 0 0 758 c0 419 -5 775 -10 796 -13
59 -59 118 -115 147 -63 34 -117 42 -178 25z"/>
<path d="M1545 2001 c-58 -26 -101 -65 -124 -115 -21 -43 -21 -50 -19 -744 l3
-700 30 -43 c17 -24 53 -57 80 -74 42 -26 58 -30 119 -30 79 1 119 16 174 69
63 59 72 89 72 246 l0 140 -84 0 -84 0 -4 -130 c-3 -147 -11 -164 -74 -164
-26 0 -42 7 -55 23 -18 21 -19 45 -19 307 l0 283 78 3 77 3 0 80 0 80 -78 0
-77 0 0 288 0 288 25 24 c23 24 31 25 135 25 l110 0 0 80 0 80 -122 0 c-97 0
-131 -4 -163 -19z"/>
<path d="M1852 1938 l3 -82 78 2 77 1 0 -785 0 -784 80 0 80 0 0 785 0 785 75
0 75 0 0 80 0 80 -235 0 -236 0 3 -82z"/>
<path d="M569 601 c-33 -34 -35 -47 -14 -99 19 -43 47 -76 92 -103 29 -18 35
-19 60 -5 32 16 85 70 102 103 39 77 -19 150 -94 118 -30 -12 -38 -12 -62 0
-39 21 -51 19 -84 -14z"/>
</g>
</svg>
